# xmcd
#
# Track frame offsets: 
#        150
#        16849
#        33322
#        46611
#        62369
#        78306
#        88820
#        102906
#        115058
#        129158
#        142431
#        156193
#        166353
#
# Disc length: 2617 seconds
#
# Revision: 0
# Processed by: cddbd v1.5.2PL0 Copyright (c) Steve Scherf et al.
# Submitted via: ExactAudioCopy v0.99pb5
#
DISCID=9c0a370d
DTITLE=Cabin Fever - Live at Boonedocks
DYEAR=2007
DGENRE=Bluegrass
TTITLE0=MTA
TTITLE1=Deep Elem Blues
TTITLE2=Fireball Mail
TTITLE3=Fred Riding Fred
TTITLE4=Traveling Prayer
TTITLE5=Highway 40 Blues
TTITLE6=Foggy Mountain Breakdown
TTITLE7=Boris The Spider
TTITLE8=Sea Of Heartbreak
TTITLE9=I Ain't Broke But I'm Badly Bent
TTITLE10=Ernest T. Grass
TTITLE11=Wichita
TTITLE12=Too Much Fun
EXTD=
EXTT0=
EXTT1=
EXTT2=
EXTT3=
EXTT4=
EXTT5=
EXTT6=
EXTT7=
EXTT8=
EXTT9=
EXTT10=
EXTT11=
EXTT12=
PLAYORDER=
